<svg width="228" height="93" viewBox="0 0 228 93" fill="none" xmlns="http://www.w3.org/2000/svg">
<path d="M34.9778 0.86254V34H27.4035V14.7329L18.8351 28.7927H17.983L9.41463 14.7329V34H1.84035V0.86254H9.41463L18.4091 15.585L27.4035 0.86254H34.9778ZM57.6208 10.3304H64.7216V34H57.6208V31.7751C56.0586 33.5739 53.7389 34.6627 50.5672 34.6627C44.3658 34.6627 39.2531 29.2187 39.2531 22.1652C39.2531 15.1116 44.3658 9.66764 50.5672 9.66764C53.7389 9.66764 56.0586 10.7564 57.6208 12.5553V10.3304ZM51.9874 27.9406C55.2538 27.9406 57.6208 25.7156 57.6208 22.1652C57.6208 18.6148 55.2538 16.3898 51.9874 16.3898C48.721 16.3898 46.354 18.6148 46.354 22.1652C46.354 25.7156 48.721 27.9406 51.9874 27.9406ZM77.0321 14.5436C77.9788 11.3718 81.1506 9.85699 84.1329 9.85699V17.9047C81.1979 17.4313 77.0321 18.6148 77.0321 23.3013V34H69.9312V10.3304H77.0321V14.5436ZM110.175 34H102.127L94.5531 23.538V34H87.4522V0.86254H94.5531V20.6977L101.654 10.3304H109.938L101.323 22.1652L110.175 34ZM13.4385 92.6627C6.4796 92.6627 2.02971 89.349 0.183481 84.4731L6.71629 80.6859C7.89977 83.4316 9.93536 85.2778 13.6752 85.2778C17.2729 85.2778 18.1724 83.8577 18.1724 82.5795C18.1724 80.5439 16.2788 79.7391 11.3082 78.3663C6.38492 76.9935 1.55632 74.6265 1.55632 68.283C1.55632 61.8923 6.95299 58.1998 12.681 58.1998C18.125 58.1998 22.3856 60.8034 24.7999 65.6794L18.4091 69.4192C17.2729 67.0522 15.7107 65.5847 12.681 65.5847C10.3141 65.5847 9.1306 66.7682 9.1306 68.0937C9.1306 69.6085 9.93536 70.65 15.0953 72.2122C20.1133 73.7271 25.7467 75.4786 25.7467 82.4848C25.7467 88.8756 20.634 92.6627 13.4385 92.6627ZM41.3501 92.6627C34.3912 92.6627 28.8052 87.2187 28.8052 80.1652C28.8052 73.1116 34.3912 67.6676 41.3501 67.6676C48.309 67.6676 53.895 73.1116 53.895 80.1652C53.895 87.2187 48.309 92.6627 41.3501 92.6627ZM41.3501 85.7512C44.4272 85.7512 46.7941 83.5263 46.7941 80.1652C46.7941 76.8041 44.4272 74.5792 41.3501 74.5792C38.2731 74.5792 35.9061 76.8041 35.9061 80.1652C35.9061 83.5263 38.2731 85.7512 41.3501 85.7512ZM57.9115 92V57.4424H65.0123V92H57.9115ZM81.57 92.6627C74.6111 92.6627 69.0251 87.2187 69.0251 80.1652C69.0251 73.1116 74.6111 67.6676 81.57 67.6676C88.5288 67.6676 94.1149 73.1116 94.1149 80.1652C94.1149 87.2187 88.5288 92.6627 81.57 92.6627ZM81.57 85.7512C84.647 85.7512 87.014 83.5263 87.014 80.1652C87.014 76.8041 84.647 74.5792 81.57 74.5792C78.4929 74.5792 76.126 76.8041 76.126 80.1652C76.126 83.5263 78.4929 85.7512 81.57 85.7512ZM112.002 67.6676C116.783 67.6676 120.854 71.0761 120.854 77.4669V92H113.753V78.5083C113.753 75.5733 111.907 74.2005 109.635 74.2005C107.031 74.2005 105.232 75.7153 105.232 79.0764V92H98.1313V68.3304H105.232V70.5553C106.51 68.8038 108.877 67.6676 112.002 67.6676ZM137.092 92.6627C129.896 92.6627 124.547 87.2187 124.547 80.1652C124.547 73.1116 129.896 67.6676 137.092 67.6676C141.684 67.6676 145.755 70.0819 147.791 73.7271L141.589 77.3248C140.784 75.668 139.08 74.6738 136.997 74.6738C133.92 74.6738 131.648 76.8988 131.648 80.1652C131.648 83.4316 133.92 85.6565 136.997 85.6565C139.08 85.6565 140.832 84.6624 141.589 83.0055L147.791 86.556C145.755 90.2484 141.731 92.6627 137.092 92.6627ZM164.519 67.6676C169.3 67.6676 173.371 71.0761 173.371 77.4669V92H166.27V78.5083C166.27 75.5733 164.424 74.2005 162.152 74.2005C159.548 74.2005 157.749 75.7153 157.749 79.0764V92H150.648V58.8625H157.749V70.5553C159.027 68.8038 161.394 67.6676 164.519 67.6676ZM184.591 83.0055C185.49 85.4672 187.668 86.3193 190.272 86.3193C192.212 86.3193 193.869 85.5619 194.816 84.5204L200.497 87.7868C198.177 91.0059 194.674 92.6627 190.177 92.6627C182.082 92.6627 177.064 87.2187 177.064 80.1652C177.064 73.1116 182.177 67.6676 189.656 67.6676C196.568 67.6676 201.68 73.017 201.68 80.1652C201.68 81.1593 201.586 82.1061 201.396 83.0055H184.591ZM184.449 77.7036H194.627C193.869 74.9579 191.739 73.9638 189.609 73.9638C186.91 73.9638 185.112 75.2893 184.449 77.7036ZM219.884 68.3304H227.743L218.985 92H210.937L202.18 68.3304H210.038L214.961 83.3369L219.884 68.3304Z" fill="#070707"/>
</svg>
